<svg id="Layer_1" data-name="Layer 1" xmlns="http://www.w3.org/2000/svg" viewBox="50 50 180 180">
    <defs>
        <style>.cls-1 {
            fill: #2196f3;
        }</style>
    </defs>
    <polygon class="cls-1" points="83.77 147.09 88.51 167.51 93.92 167.51 89.42 147.09 83.77 147.09"/>
    <path class="cls-1"
          d="M136.67,116.53c-4.86-4.68,1-7.57,1-7.57-13-1.86-18.24,6.79-18.24,6.79V90.48H58.6l-.21,77h3.82q7.58-24,15.14-48l5.1,22,5.58.06-7-32.73L105,109l13.09,58.55h22.88l-21.55-23.12V131.48l24.67,27.86c4.59,5.19-.12,8.17-.12,8.17s11.11,1.44,16.33-5.16c7.61-9.63-.66-19.88-.66-19.88Z"/>
    <polygon class="cls-1" points="161.72 109.11 139.85 109.2 161.82 132.98 161.72 109.11"/>
    <rect class="cls-1" x="167.63" y="109.11" width="23.69" height="58.4"/>
    <path class="cls-1" d="M198.34,138.31s20.81,3.05,22.16-13.34-18.2-17.13-23.33-15.86v58.4h27.31Z"/>
    <path class="cls-1" d="M64.6,174.13l-5.78,15h3L63,186.05h6.12l1.18,3.09h3l-5.77-15Zm-.54,9.13,2-5.15,2,5.15Z"/>
    <path class="cls-1"
          d="M77.94,178.18a3,3,0,0,0-1,1.26V178H74.52v11.1h2.77v-5a7.38,7.38,0,0,1,.44-3.12,1.29,1.29,0,0,1,1.09-.8,1.87,1.87,0,0,1,.81.25l.86-2.4a2.6,2.6,0,0,0-1.13-.29A2.54,2.54,0,0,0,77.94,178.18Z"/>
    <path class="cls-1"
          d="M83,173.47a1.78,1.78,0,0,0-1.77,1.77,1.81,1.81,0,0,0,.52,1.31,1.73,1.73,0,0,0,1.27.53,1.69,1.69,0,0,0,1.24-.52,1.74,1.74,0,0,0,.52-1.27A1.76,1.76,0,0,0,84.2,174,1.7,1.7,0,0,0,83,173.47Z"/>
    <rect class="cls-1" x="81.55" y="178.04" width="2.79" height="11.1"/>
    <path class="cls-1"
          d="M95.06,179.26a5,5,0,0,0-1.62-1.13,4.7,4.7,0,0,0-1.87-.38,4.82,4.82,0,0,0-3.69,1.65,6,6,0,0,0-1.52,4.21,5.81,5.81,0,0,0,1.57,4.15,5,5,0,0,0,3.72,1.67,4.56,4.56,0,0,0,1.78-.35A5.43,5.43,0,0,0,95.06,188v1.17h2.79V178H95.06Zm-.74,6.7a2.86,2.86,0,0,1-2.17.92A2.8,2.8,0,0,1,90,186a3.33,3.33,0,0,1-.87-2.37,3.29,3.29,0,0,1,.85-2.34,2.8,2.8,0,0,1,2.15-.91,2.91,2.91,0,0,1,2.18.89,3.23,3.23,0,0,1,.87,2.35A3.31,3.31,0,0,1,94.32,186Z"/>
    <path class="cls-1"
          d="M106.74,177.75a4.12,4.12,0,0,0-1.57.32,6.55,6.55,0,0,0-1.72,1.11V178h-2.78v11.1h2.78v-4.45a12.72,12.72,0,0,1,.12-2.25,3.09,3.09,0,0,1,.84-1.57,2,2,0,0,1,1.45-.56,1.74,1.74,0,0,1,1.1.34,1.82,1.82,0,0,1,.62,1,12.18,12.18,0,0,1,.18,2.64v4.86h2.75v-7.33a3.94,3.94,0,0,0-1-2.9A3.8,3.8,0,0,0,106.74,177.75Z"/>
    <path class="cls-1"
          d="M125.91,181.84c-.24-.24-.9-.82-2-1.73a19.78,19.78,0,0,1-2.09-1.93,1.15,1.15,0,0,1-.26-.71.88.88,0,0,1,.36-.68,1.39,1.39,0,0,1,.92-.3,3,3,0,0,1,2.27,1.55l2.12-1.87a7.73,7.73,0,0,0-2.21-1.89,4.58,4.58,0,0,0-2.14-.53,4.14,4.14,0,0,0-2.93,1.12,3.53,3.53,0,0,0-1.19,2.68,3.91,3.91,0,0,0,.71,2.17,17.12,17.12,0,0,0,3.17,3.09,11.31,11.31,0,0,1,1.67,1.56,1.71,1.71,0,0,1,.37,1,1.27,1.27,0,0,1-.5,1,1.84,1.84,0,0,1-1.23.43c-.94,0-1.77-.67-2.5-2l-2.4,1.44a6.2,6.2,0,0,0,2,2.47,4.89,4.89,0,0,0,2.79.79,4.62,4.62,0,0,0,3.33-1.21,4,4,0,0,0,1.28-3.05,4.25,4.25,0,0,0-.36-1.75A5.88,5.88,0,0,0,125.91,181.84Z"/>
    <polygon class="cls-1"
             points="134.42 185 131.53 178.04 128.69 178.04 132.91 188.31 130.62 193.2 133.5 193.2 140.45 178.04 137.6 178.04 134.42 185"/>
    <path class="cls-1"
          d="M146.22,182.41l-1-.51a3,3,0,0,1-.83-.52.6.6,0,0,1-.17-.41.61.61,0,0,1,.27-.5,1.22,1.22,0,0,1,.73-.2,2.89,2.89,0,0,1,1.91,1l1.73-1.73a4.58,4.58,0,0,0-1.62-1.36,4.5,4.5,0,0,0-2-.48,3.68,3.68,0,0,0-2.59.94,2.94,2.94,0,0,0-1,2.25q0,2,2.69,3.39l.94.47c.81.41,1.22.83,1.22,1.26a.76.76,0,0,1-.34.61,1.37,1.37,0,0,1-.89.27,2.53,2.53,0,0,1-1.16-.35,4,4,0,0,1-1.15-.93l-1.72,1.87a4.65,4.65,0,0,0,3.88,1.9,4.14,4.14,0,0,0,2.91-1,3.38,3.38,0,0,0,.49-4.41A6,6,0,0,0,146.22,182.41Z"/>
    <polygon class="cls-1"
             points="154.36 173.95 151.57 173.95 151.57 178.04 150.14 178.04 150.14 180.44 151.57 180.44 151.57 189.14 154.36 189.14 154.36 180.44 156.01 180.44 156.01 178.04 154.36 178.04 154.36 173.95"/>
    <path class="cls-1"
          d="M162.72,177.75a5.49,5.49,0,0,0-4.1,1.68,5.78,5.78,0,0,0-1.64,4.22,5.64,5.64,0,0,0,1.64,4.13,5.75,5.75,0,0,0,4.26,1.65,6.5,6.5,0,0,0,2.9-.6,5.58,5.58,0,0,0,2.11-1.84l-2.35-1.1a3.74,3.74,0,0,1-2.68,1.09,3.22,3.22,0,0,1-2.15-.7,3,3,0,0,1-1-1.88h9v-.53a6.1,6.1,0,0,0-1.64-4.44A5.72,5.72,0,0,0,162.72,177.75Zm-2.93,4.45a3.81,3.81,0,0,1,1-1.44,3.34,3.34,0,0,1,2-.65,3.23,3.23,0,0,1,1.89.58,2.77,2.77,0,0,1,1.08,1.51Z"/>
    <path class="cls-1"
          d="M186.18,178.3a4,4,0,0,0-2.08-.55,4.4,4.4,0,0,0-3.74,2,3.7,3.7,0,0,0-1.35-1.49,3.53,3.53,0,0,0-1.88-.51,4.58,4.58,0,0,0-1.9.39,4.78,4.78,0,0,0-1.59,1.18V178h-2.79v11.1h2.79V184.2a7,7,0,0,1,.28-2.34,2.43,2.43,0,0,1,.85-1.16,2.07,2.07,0,0,1,1.26-.41,1.74,1.74,0,0,1,1.07.32,2,2,0,0,1,.66,1,7.74,7.74,0,0,1,.22,2.15v5.38h2.8v-5a7.08,7.08,0,0,1,.28-2.31,2.41,2.41,0,0,1,.84-1.13,2.14,2.14,0,0,1,1.28-.4,1.61,1.61,0,0,1,1.41.66,4.87,4.87,0,0,1,.47,2.56v5.63h2.8v-6.51a7.8,7.8,0,0,0-.39-2.89A3.19,3.19,0,0,0,186.18,178.3Z"/>
    <path class="cls-1"
          d="M205.06,181a4.15,4.15,0,0,0,.71-2.47,4.51,4.51,0,0,0-.64-2.44,3.56,3.56,0,0,0-1.7-1.47,9.85,9.85,0,0,0-3.54-.45h-3v15h2.86v-6.36H200l3.38,6.36h3.12l-3.56-6.67A4.23,4.23,0,0,0,205.06,181Zm-2.57-1.32a3.47,3.47,0,0,1-1.87.36h-.9v-3.08h.78a5,5,0,0,1,1.57.16,1.41,1.41,0,0,1,.68.52,1.45,1.45,0,0,1,.26.85A1.35,1.35,0,0,1,202.49,179.64Z"/>
    <path class="cls-1"
          d="M218.81,180.67a5.67,5.67,0,0,0-2.16-2.13,5.9,5.9,0,0,0-3-.79,5.84,5.84,0,0,0,0,11.68,5.92,5.92,0,0,0,3-.77,5.68,5.68,0,0,0,2.13-2.14,5.83,5.83,0,0,0,.78-2.94A5.72,5.72,0,0,0,218.81,180.67Zm-2.9,5.26a2.9,2.9,0,0,1-2.18.9,2.84,2.84,0,0,1-2.16-.89,3.26,3.26,0,0,1-.85-2.35,3.22,3.22,0,0,1,.86-2.31,3.09,3.09,0,0,1,4.35,0,3.21,3.21,0,0,1,.85,2.32A3.26,3.26,0,0,1,215.91,185.93Z"/>
</svg>