<svg id="svg" version="1.1" xmlns="http://www.w3.org/2000/svg" xmlns:xlink="http://www.w3.org/1999/xlink" width="400" height="245.0273224043716" viewBox="0, 0, 400,245.0273224043716"><g id="svgg"><path id="path0" d="M0.575 3.115 C 0.506 4.828,0.397 29.492,0.334 57.923 C 0.270 86.355,0.153 126.708,0.073 147.596 L -0.071 185.574 4.657 185.574 L 9.384 185.574 10.342 182.568 C 10.869 180.915,19.004 155.169,28.419 125.355 C 37.835 95.541,45.600 71.075,45.675 70.985 C 45.749 70.896,48.494 82.454,51.773 96.669 C 55.053 110.883,57.785 122.686,57.845 122.896 C 58.012 123.487,71.480 123.487,71.467 122.896 C 71.463 122.686,67.742 105.005,63.198 83.607 L 54.937 44.699 72.222 44.648 C 81.730 44.620,94.619 44.669,100.866 44.757 L 112.223 44.918 127.576 113.770 C 136.020 151.639,143.088 183.336,143.282 184.208 L 143.636 185.792 171.272 185.792 C 186.471 185.792,198.902 185.719,198.896 185.628 C 198.890 185.538,187.239 172.973,173.006 157.705 L 147.127 129.945 147.115 114.699 C 147.109 106.314,147.148 99.454,147.202 99.454 C 147.362 99.454,206.812 166.748,207.721 167.958 C 212.201 173.924,212.123 179.593,207.498 184.191 L 205.921 185.760 207.343 185.912 C 211.977 186.408,221.267 185.742,226.339 184.550 C 251.014 178.750,260.527 153.885,247.128 130.208 C 245.063 126.560,245.276 126.809,215.510 93.153 C 200.067 75.692,187.061 60.941,186.608 60.375 C 182.508 55.249,183.593 49.819,189.524 45.766 C 191.358 44.513,191.376 44.527,187.482 44.182 C 171.192 42.738,156.742 48.341,147.814 59.563 L 147.118 60.437 147.111 30.219 L 147.104 0.000 73.903 0.000 L 0.701 0.000 0.575 3.115 M340.431 44.167 C 338.056 44.319,335.608 44.644,334.590 44.944 C 334.227 45.051,334.208 48.596,334.208 115.425 L 334.208 185.792 367.104 185.792 C 385.197 185.792,400.000 185.741,400.000 185.677 C 400.000 185.586,341.490 120.059,338.278 116.553 L 337.422 115.619 339.039 115.788 C 342.217 116.119,352.451 115.973,355.628 115.551 C 377.581 112.636,389.169 101.713,390.596 82.589 C 392.270 60.147,376.566 45.838,348.415 44.154 C 344.488 43.919,344.296 43.919,340.431 44.167 M196.981 45.186 C 196.011 45.306,193.384 42.351,222.732 74.153 L 249.071 102.693 249.133 74.571 C 249.167 59.103,249.138 46.128,249.068 45.738 L 248.942 45.027 223.323 45.062 C 209.233 45.082,197.379 45.137,196.981 45.186 M263.095 48.142 C 263.017 49.855,262.952 81.527,262.952 118.525 L 262.951 185.792 291.585 185.792 L 320.219 185.792 320.219 115.410 L 320.219 45.027 291.728 45.027 L 263.237 45.027 263.095 48.142 M63.985 149.016 C 65.595 155.959,68.164 167.049,69.696 173.661 L 72.480 185.683 79.081 185.741 C 83.606 185.781,85.683 185.726,85.683 185.568 C 85.683 185.441,83.273 174.383,80.328 160.995 C 77.383 147.606,74.973 136.594,74.973 136.523 C 74.973 136.452,71.842 136.393,68.016 136.393 L 61.059 136.393 63.985 149.016 M57.192 197.477 C 53.534 198.782,53.473 204.267,57.100 205.782 C 59.846 206.929,62.835 205.072,63.099 202.056 C 63.385 198.780,60.283 196.375,57.192 197.477 M151.377 198.495 C 146.455 200.187,143.871 205.000,145.321 209.773 C 146.164 212.550,148.100 214.799,153.771 219.595 C 159.035 224.046,159.952 225.567,158.587 227.576 C 156.589 230.517,152.009 229.480,149.779 225.581 C 149.467 225.036,149.193 224.562,149.171 224.528 C 148.999 224.270,143.168 228.097,143.279 228.396 C 147.071 238.543,163.151 238.630,165.785 228.517 C 167.061 223.618,165.386 219.966,159.608 215.045 C 151.766 208.367,151.120 207.568,152.254 205.949 C 153.603 204.022,156.539 204.523,159.005 207.100 L 160.357 208.513 162.856 206.319 C 165.942 203.610,165.872 203.991,163.670 201.876 C 159.985 198.337,155.457 197.092,151.377 198.495 M223.825 203.388 L 223.825 208.306 222.077 208.306 L 220.328 208.306 220.328 211.257 L 220.328 214.208 222.077 214.208 L 223.825 214.208 223.825 224.699 L 223.825 235.191 227.322 235.191 L 230.820 235.191 230.820 224.699 L 230.820 214.208 232.787 214.208 L 234.754 214.208 234.754 211.257 L 234.754 208.306 232.787 208.306 L 230.820 208.306 230.820 203.388 L 230.820 198.470 227.322 198.470 L 223.825 198.470 223.825 203.388 M7.554 216.662 C 3.732 226.552,0.556 234.770,0.496 234.923 C 0.409 235.144,1.169 235.189,4.139 235.142 L 7.893 235.082 9.338 231.418 L 10.782 227.754 18.098 227.811 L 25.413 227.869 26.782 231.475 L 28.151 235.082 31.889 235.142 L 35.626 235.202 35.154 233.940 C 34.895 233.245,31.755 225.055,28.177 215.738 L 21.672 198.798 18.088 198.738 L 14.503 198.678 7.554 216.662 M332.896 217.128 L 332.896 235.410 336.503 235.410 L 340.109 235.410 340.109 227.760 C 340.109 223.552,340.193 220.109,340.295 220.109 C 340.396 220.109,342.290 223.527,344.502 227.705 L 348.525 235.301 352.404 235.360 C 354.538 235.393,356.284 235.353,356.284 235.272 C 356.284 235.191,354.415 231.611,352.131 227.317 C 349.847 223.023,347.978 219.449,347.978 219.375 C 347.978 219.302,348.581 218.937,349.317 218.565 C 355.098 215.647,356.444 207.264,351.951 202.170 C 349.778 199.707,347.560 199.157,339.071 198.976 L 332.896 198.845 332.896 217.128 M345.712 206.401 C 347.473 207.325,348.147 209.225,347.352 211.022 C 346.717 212.457,345.622 212.915,342.473 213.065 L 340.109 213.177 340.109 209.512 L 340.109 205.847 342.568 205.945 C 344.265 206.012,345.240 206.154,345.712 206.401 M48.685 207.670 C 47.027 208.060,45.363 209.262,44.626 210.601 C 44.429 210.959,44.384 210.796,44.378 209.704 L 44.372 208.369 42.896 208.230 C 42.085 208.153,40.708 208.090,39.836 208.089 L 38.251 208.087 38.251 221.639 L 38.251 235.191 41.733 235.191 L 45.214 235.191 45.303 226.612 C 45.399 217.273,45.491 216.495,46.672 214.946 C 47.608 213.719,48.461 213.415,49.739 213.850 C 50.314 214.046,50.802 214.182,50.824 214.152 C 51.333 213.449,52.910 208.231,52.660 208.076 C 51.805 207.545,49.998 207.360,48.685 207.670 M77.813 207.644 C 65.412 209.246,62.728 228.457,74.060 234.498 C 78.110 236.656,82.929 236.242,86.721 233.411 L 87.869 232.554 87.869 233.873 L 87.869 235.191 91.257 235.191 L 94.645 235.191 94.645 221.749 L 94.645 208.306 91.257 208.306 L 87.869 208.306 87.869 209.609 L 87.869 210.911 86.466 209.850 C 84.854 208.629,83.210 207.952,81.131 207.651 C 79.534 207.420,79.548 207.420,77.813 207.644 M113.115 207.945 C 111.881 208.353,110.446 209.110,109.235 209.991 L 108.197 210.748 108.197 209.527 L 108.197 208.306 104.699 208.306 L 101.202 208.306 101.202 221.749 L 101.202 235.191 104.681 235.191 L 108.159 235.191 108.241 227.268 C 108.331 218.562,108.427 217.894,109.845 216.034 C 112.022 213.181,116.154 213.339,117.628 216.333 C 118.138 217.370,118.143 217.440,118.210 226.284 L 118.278 235.191 121.776 235.191 L 125.273 235.191 125.195 224.863 C 125.103 212.797,125.114 212.866,122.906 210.481 C 120.626 208.018,116.293 206.896,113.115 207.945 M205.429 208.070 C 199.850 209.854,198.000 216.134,201.783 220.443 C 202.783 221.581,204.788 222.934,207.584 224.355 C 211.251 226.219,212.227 227.652,210.704 228.934 C 209.114 230.272,206.412 229.700,204.054 227.527 C 202.887 226.452,203.259 226.289,200.782 228.960 L 198.655 231.254 199.882 232.541 C 205.976 238.930,217.475 235.995,217.880 227.948 C 218.096 223.636,216.431 221.498,210.510 218.487 C 206.321 216.358,205.710 215.691,206.875 214.526 C 207.987 213.414,210.814 214.073,212.442 215.824 C 213.194 216.631,213.233 216.612,215.469 214.367 C 217.855 211.971,217.813 212.181,216.218 210.660 C 213.405 207.977,209.015 206.923,205.429 208.070 M247.432 207.977 C 237.050 210.317,233.227 224.269,240.872 231.915 C 246.341 237.384,256.344 237.402,261.727 231.953 C 263.748 229.907,263.815 230.117,260.674 228.626 C 257.414 227.078,257.802 227.115,256.247 228.204 C 252.172 231.059,246.489 230.017,244.429 226.040 C 243.164 223.596,242.127 223.825,254.459 223.825 L 265.202 223.825 265.077 221.366 C 264.597 211.878,256.703 205.888,247.432 207.977 M282.699 207.947 C 281.090 208.357,279.341 209.263,278.170 210.294 L 277.158 211.185 277.158 209.745 L 277.158 208.306 273.770 208.306 L 270.383 208.306 270.383 221.749 L 270.383 235.191 273.749 235.191 L 277.116 235.191 277.222 227.486 C 277.371 216.600,278.275 214.333,282.585 214.039 C 286.655 213.762,287.428 215.922,287.430 227.596 L 287.432 235.191 290.929 235.191 L 294.426 235.191 294.428 228.033 C 294.430 220.368,294.580 218.687,295.410 217.049 C 296.978 213.955,300.691 213.011,302.902 215.144 C 304.263 216.457,304.341 217.051,304.429 226.721 L 304.508 235.410 308.009 235.410 L 311.509 235.410 311.418 225.191 C 311.309 213.018,311.189 212.333,308.781 210.113 C 304.914 206.548,298.435 206.910,294.519 210.909 L 293.256 212.199 292.622 211.241 C 290.736 208.394,286.484 206.983,282.699 207.947 M371.913 207.787 C 371.672 207.834,370.934 207.980,370.273 208.111 C 359.869 210.174,356.013 224.170,363.715 231.914 C 373.751 242.005,390.716 232.350,387.431 218.416 C 385.860 211.751,378.250 206.539,371.913 207.787 M55.301 221.749 L 55.301 235.191 58.798 235.191 L 62.295 235.191 62.295 221.749 L 62.295 208.306 58.798 208.306 L 55.301 208.306 55.301 221.749 M168.803 208.579 C 168.862 208.730,171.143 214.298,173.871 220.953 L 178.831 233.053 178.391 234.068 C 178.150 234.625,176.914 237.295,175.646 240.000 L 173.341 244.918 176.872 244.978 C 178.815 245.011,180.474 244.962,180.559 244.869 C 180.689 244.727,196.158 211.151,197.077 209.016 L 197.383 208.306 193.801 208.306 L 190.220 208.306 186.553 216.339 C 184.536 220.757,182.824 224.443,182.749 224.530 C 182.673 224.617,181.091 221.003,179.233 216.497 L 175.854 208.306 172.275 208.306 C 169.501 208.306,168.720 208.367,168.803 208.579 M20.461 214.935 L 22.673 220.656 18.190 220.715 C 15.724 220.747,13.663 220.730,13.610 220.677 C 13.556 220.624,14.530 217.975,15.773 214.792 C 17.016 211.608,18.081 209.050,18.140 209.108 C 18.200 209.166,19.244 211.788,20.461 214.935 M254.482 214.301 C 255.827 214.937,257.513 216.620,257.891 217.705 L 258.119 218.361 251.021 218.361 L 243.923 218.361 244.237 217.760 C 246.202 213.997,250.659 212.492,254.482 214.301 M84.067 214.705 C 90.907 218.207,88.565 229.355,80.984 229.384 C 72.806 229.415,70.925 217.169,78.663 214.278 C 79.955 213.795,82.717 214.013,84.067 214.705 M376.707 214.938 C 382.423 217.555,382.079 226.848,376.185 229.087 C 372.773 230.384,368.998 228.897,367.386 225.624 C 364.153 219.056,370.303 212.006,376.707 214.938 " stroke="none" fill="#d2d2d4" fill-rule="evenodd"></path></g></svg>